<mxfile host="app.diagrams.net" modified="2023-05-23T15:34:55.264Z" agent="Mozilla/5.0 (Windows NT 10.0; Win64; x64) AppleWebKit/537.36 (KHTML, like Gecko) Chrome/113.0.0.0 Safari/537.36" etag="TKrALQmzgf3_pTcBKiNr" version="21.3.2" type="device">
  <diagram name="Page-1" id="pVitW8c0r0CNbPQAt25Z">
    <mxGraphModel dx="3243" dy="3382" grid="1" gridSize="10" guides="1" tooltips="1" connect="1" arrows="1" fold="1" page="1" pageScale="1" pageWidth="850" pageHeight="1100" math="0" shadow="0">
      <root>
        <mxCell id="0" />
        <mxCell id="1" parent="0" />
        <mxCell id="iwajkL2aGSWXHmtzGLia-2" value="" style="outlineConnect=0;dashed=0;verticalLabelPosition=bottom;verticalAlign=top;align=center;html=1;shape=mxgraph.aws3.users;fillColor=#D2D3D3;gradientColor=none;rounded=0;" parent="1" vertex="1">
          <mxGeometry x="20" y="-797" width="66" height="63" as="geometry" />
        </mxCell>
        <mxCell id="iwajkL2aGSWXHmtzGLia-4" value="" style="outlineConnect=0;dashed=0;verticalLabelPosition=bottom;verticalAlign=top;align=center;html=1;shape=mxgraph.aws3.users;fillColor=#D2D3D3;gradientColor=none;rounded=0;" parent="1" vertex="1">
          <mxGeometry x="20" y="-860" width="66" height="63" as="geometry" />
        </mxCell>
        <mxCell id="iwajkL2aGSWXHmtzGLia-5" value="" style="outlineConnect=0;dashed=0;verticalLabelPosition=bottom;verticalAlign=top;align=center;html=1;shape=mxgraph.aws3.users;fillColor=#D2D3D3;gradientColor=none;rounded=0;" parent="1" vertex="1">
          <mxGeometry x="20" y="-734" width="66" height="63" as="geometry" />
        </mxCell>
        <mxCell id="iwajkL2aGSWXHmtzGLia-8" value="&lt;font style=&quot;font-size: 16px;&quot;&gt;Users&lt;/font&gt;" style="text;strokeColor=default;align=center;fillColor=none;html=1;verticalAlign=middle;whiteSpace=wrap;rounded=0;" parent="1" vertex="1">
          <mxGeometry x="28" y="-910" width="50" height="33.5" as="geometry" />
        </mxCell>
        <mxCell id="iwajkL2aGSWXHmtzGLia-10" value="" style="endArrow=classic;html=1;rounded=0;" parent="1" edge="1">
          <mxGeometry width="50" height="50" relative="1" as="geometry">
            <mxPoint x="100" y="-767.25" as="sourcePoint" />
            <mxPoint x="190" y="-767.25" as="targetPoint" />
          </mxGeometry>
        </mxCell>
        <mxCell id="iwajkL2aGSWXHmtzGLia-12" value="" style="endArrow=classic;html=1;rounded=0;" parent="1" edge="1">
          <mxGeometry width="50" height="50" relative="1" as="geometry">
            <mxPoint x="100" y="-800" as="sourcePoint" />
            <mxPoint x="190" y="-800" as="targetPoint" />
          </mxGeometry>
        </mxCell>
        <mxCell id="iwajkL2aGSWXHmtzGLia-13" value="" style="points=[[0,0,0],[0.25,0,0],[0.5,0,0],[0.75,0,0],[1,0,0],[0,1,0],[0.25,1,0],[0.5,1,0],[0.75,1,0],[1,1,0],[0,0.25,0],[0,0.5,0],[0,0.75,0],[1,0.25,0],[1,0.5,0],[1,0.75,0]];outlineConnect=0;fontColor=#232F3E;gradientColor=#945DF2;gradientDirection=north;fillColor=#5A30B5;strokeColor=#ffffff;dashed=0;verticalLabelPosition=bottom;verticalAlign=top;align=center;html=1;fontSize=12;fontStyle=0;aspect=fixed;shape=mxgraph.aws4.resourceIcon;resIcon=mxgraph.aws4.route_53;rounded=0;" parent="1" vertex="1">
          <mxGeometry x="200" y="-810" width="76" height="76" as="geometry" />
        </mxCell>
        <mxCell id="iwajkL2aGSWXHmtzGLia-14" value="Amazon Route 53" style="text;strokeColor=default;align=center;fillColor=none;html=1;verticalAlign=middle;whiteSpace=wrap;rounded=0;fontSize=15;" parent="1" vertex="1">
          <mxGeometry x="180" y="-870" width="110" height="50" as="geometry" />
        </mxCell>
        <mxCell id="iwajkL2aGSWXHmtzGLia-96" value="" style="endArrow=classic;html=1;rounded=0;" parent="1" edge="1">
          <mxGeometry width="50" height="50" relative="1" as="geometry">
            <mxPoint x="100" y="-738" as="sourcePoint" />
            <mxPoint x="190" y="-738" as="targetPoint" />
          </mxGeometry>
        </mxCell>
        <mxCell id="iwajkL2aGSWXHmtzGLia-97" value="" style="endArrow=classic;html=1;rounded=0;" parent="1" edge="1">
          <mxGeometry width="50" height="50" relative="1" as="geometry">
            <mxPoint x="290" y="-770.75" as="sourcePoint" />
            <mxPoint x="380" y="-770.75" as="targetPoint" />
          </mxGeometry>
        </mxCell>
        <mxCell id="iwajkL2aGSWXHmtzGLia-98" value="" style="endArrow=classic;html=1;rounded=0;" parent="1" edge="1">
          <mxGeometry width="50" height="50" relative="1" as="geometry">
            <mxPoint x="290" y="-803.5" as="sourcePoint" />
            <mxPoint x="380" y="-803.5" as="targetPoint" />
          </mxGeometry>
        </mxCell>
        <mxCell id="iwajkL2aGSWXHmtzGLia-99" value="" style="endArrow=classic;html=1;rounded=0;" parent="1" edge="1">
          <mxGeometry width="50" height="50" relative="1" as="geometry">
            <mxPoint x="290" y="-741.5" as="sourcePoint" />
            <mxPoint x="380" y="-741.5" as="targetPoint" />
          </mxGeometry>
        </mxCell>
        <mxCell id="iwajkL2aGSWXHmtzGLia-100" value="" style="points=[[0,0,0],[0.25,0,0],[0.5,0,0],[0.75,0,0],[1,0,0],[0,1,0],[0.25,1,0],[0.5,1,0],[0.75,1,0],[1,1,0],[0,0.25,0],[0,0.5,0],[0,0.75,0],[1,0.25,0],[1,0.5,0],[1,0.75,0]];outlineConnect=0;fontColor=#232F3E;gradientColor=#F78E04;gradientDirection=north;fillColor=#D05C17;strokeColor=#ffffff;dashed=0;verticalLabelPosition=bottom;verticalAlign=top;align=center;html=1;fontSize=12;fontStyle=0;aspect=fixed;shape=mxgraph.aws4.resourceIcon;resIcon=mxgraph.aws4.elastic_load_balancing;rounded=0;" parent="1" vertex="1">
          <mxGeometry x="400" y="-812" width="78" height="78" as="geometry" />
        </mxCell>
        <mxCell id="iwajkL2aGSWXHmtzGLia-101" value="Elastic Load Balancer" style="text;strokeColor=none;align=center;fillColor=none;html=1;verticalAlign=middle;whiteSpace=wrap;rounded=0;" parent="1" vertex="1">
          <mxGeometry x="409" y="-717.5" width="60" height="30" as="geometry" />
        </mxCell>
        <mxCell id="iwajkL2aGSWXHmtzGLia-102" value="" style="endArrow=classic;html=1;rounded=0;" parent="1" edge="1" source="iwajkL2aGSWXHmtzGLia-113">
          <mxGeometry width="50" height="50" relative="1" as="geometry">
            <mxPoint x="560" y="-848" as="sourcePoint" />
            <mxPoint x="650" y="-890" as="targetPoint" />
          </mxGeometry>
        </mxCell>
        <mxCell id="iwajkL2aGSWXHmtzGLia-108" value="Auto Scaling group" style="points=[[0,0],[0.25,0],[0.5,0],[0.75,0],[1,0],[1,0.25],[1,0.5],[1,0.75],[1,1],[0.75,1],[0.5,1],[0.25,1],[0,1],[0,0.75],[0,0.5],[0,0.25]];outlineConnect=0;gradientColor=none;html=1;whiteSpace=wrap;fontSize=12;fontStyle=0;container=1;pointerEvents=0;collapsible=0;recursiveResize=0;shape=mxgraph.aws4.groupCenter;grIcon=mxgraph.aws4.group_auto_scaling_group;grStroke=1;strokeColor=#D86613;fillColor=none;verticalAlign=top;align=center;fontColor=#D86613;dashed=1;spacingTop=25;strokeWidth=5;rounded=0;" parent="1" vertex="1">
          <mxGeometry x="610" y="-1110" width="460" height="850" as="geometry" />
        </mxCell>
        <mxCell id="iwajkL2aGSWXHmtzGLia-114" value="Availability zone A" style="outlineConnect=0;gradientColor=none;html=1;whiteSpace=wrap;fontSize=12;fontStyle=0;shape=mxgraph.aws4.group;grIcon=mxgraph.aws4.group_availability_zone;strokeColor=#E8E8E8;fillColor=none;verticalAlign=top;align=left;spacingLeft=30;fontColor=#E8E8E8;dashed=1;strokeWidth=6;rounded=0;" parent="iwajkL2aGSWXHmtzGLia-108" vertex="1">
          <mxGeometry x="70" y="60" width="310" height="200" as="geometry" />
        </mxCell>
        <mxCell id="iwajkL2aGSWXHmtzGLia-117" value="EC2 instance&amp;nbsp; frontend" style="points=[[0,0],[0.25,0],[0.5,0],[0.75,0],[1,0],[1,0.25],[1,0.5],[1,0.75],[1,1],[0.75,1],[0.5,1],[0.25,1],[0,1],[0,0.75],[0,0.5],[0,0.25]];outlineConnect=0;gradientColor=none;html=1;whiteSpace=wrap;fontSize=12;fontStyle=0;container=1;pointerEvents=0;collapsible=0;recursiveResize=0;shape=mxgraph.aws4.group;grIcon=mxgraph.aws4.group_ec2_instance_contents;strokeColor=#D86613;fillColor=none;verticalAlign=top;align=left;spacingLeft=30;fontColor=#D86613;dashed=0;rounded=0;" parent="iwajkL2aGSWXHmtzGLia-108" vertex="1">
          <mxGeometry x="110" y="90" width="80" height="60" as="geometry" />
        </mxCell>
        <mxCell id="iwajkL2aGSWXHmtzGLia-116" value="EC2 instance&amp;nbsp; frontend" style="points=[[0,0],[0.25,0],[0.5,0],[0.75,0],[1,0],[1,0.25],[1,0.5],[1,0.75],[1,1],[0.75,1],[0.5,1],[0.25,1],[0,1],[0,0.75],[0,0.5],[0,0.25]];outlineConnect=0;gradientColor=none;html=1;whiteSpace=wrap;fontSize=12;fontStyle=0;container=1;pointerEvents=0;collapsible=0;recursiveResize=0;shape=mxgraph.aws4.group;grIcon=mxgraph.aws4.group_ec2_instance_contents;strokeColor=#D86613;fillColor=none;verticalAlign=top;align=left;spacingLeft=30;fontColor=#D86613;dashed=0;rounded=0;" parent="iwajkL2aGSWXHmtzGLia-108" vertex="1">
          <mxGeometry x="110" y="170" width="80" height="60" as="geometry" />
        </mxCell>
        <mxCell id="iwajkL2aGSWXHmtzGLia-118" value="EC2 instance&amp;nbsp; backend" style="points=[[0,0],[0.25,0],[0.5,0],[0.75,0],[1,0],[1,0.25],[1,0.5],[1,0.75],[1,1],[0.75,1],[0.5,1],[0.25,1],[0,1],[0,0.75],[0,0.5],[0,0.25]];outlineConnect=0;gradientColor=none;html=1;whiteSpace=wrap;fontSize=12;fontStyle=0;container=1;pointerEvents=0;collapsible=0;recursiveResize=0;shape=mxgraph.aws4.group;grIcon=mxgraph.aws4.group_ec2_instance_contents;strokeColor=#33FF33;fillColor=none;verticalAlign=top;align=left;spacingLeft=30;fontColor=#D86613;dashed=0;rounded=0;" parent="iwajkL2aGSWXHmtzGLia-108" vertex="1">
          <mxGeometry x="260" y="90" width="80" height="60" as="geometry" />
        </mxCell>
        <mxCell id="0bHGS4M8koF1JGW89DRS-1" value="Availability zone B" style="outlineConnect=0;gradientColor=none;html=1;whiteSpace=wrap;fontSize=12;fontStyle=0;shape=mxgraph.aws4.group;grIcon=mxgraph.aws4.group_availability_zone;strokeColor=#E8E8E8;fillColor=none;verticalAlign=top;align=left;spacingLeft=30;fontColor=#E8E8E8;dashed=1;strokeWidth=6;rounded=0;" parent="iwajkL2aGSWXHmtzGLia-108" vertex="1">
          <mxGeometry x="70" y="280" width="310" height="200" as="geometry" />
        </mxCell>
        <mxCell id="0bHGS4M8koF1JGW89DRS-2" value="EC2 instance&amp;nbsp; frontend" style="points=[[0,0],[0.25,0],[0.5,0],[0.75,0],[1,0],[1,0.25],[1,0.5],[1,0.75],[1,1],[0.75,1],[0.5,1],[0.25,1],[0,1],[0,0.75],[0,0.5],[0,0.25]];outlineConnect=0;gradientColor=none;html=1;whiteSpace=wrap;fontSize=12;fontStyle=0;container=1;pointerEvents=0;collapsible=0;recursiveResize=0;shape=mxgraph.aws4.group;grIcon=mxgraph.aws4.group_ec2_instance_contents;strokeColor=#D86613;fillColor=none;verticalAlign=top;align=left;spacingLeft=30;fontColor=#D86613;dashed=0;rounded=0;" parent="iwajkL2aGSWXHmtzGLia-108" vertex="1">
          <mxGeometry x="110" y="310" width="80" height="60" as="geometry" />
        </mxCell>
        <mxCell id="0bHGS4M8koF1JGW89DRS-3" value="EC2 instance&amp;nbsp; frontend" style="points=[[0,0],[0.25,0],[0.5,0],[0.75,0],[1,0],[1,0.25],[1,0.5],[1,0.75],[1,1],[0.75,1],[0.5,1],[0.25,1],[0,1],[0,0.75],[0,0.5],[0,0.25]];outlineConnect=0;gradientColor=none;html=1;whiteSpace=wrap;fontSize=12;fontStyle=0;container=1;pointerEvents=0;collapsible=0;recursiveResize=0;shape=mxgraph.aws4.group;grIcon=mxgraph.aws4.group_ec2_instance_contents;strokeColor=#D86613;fillColor=none;verticalAlign=top;align=left;spacingLeft=30;fontColor=#D86613;dashed=0;rounded=0;" parent="iwajkL2aGSWXHmtzGLia-108" vertex="1">
          <mxGeometry x="110" y="390" width="80" height="60" as="geometry" />
        </mxCell>
        <mxCell id="0bHGS4M8koF1JGW89DRS-4" value="EC2 instance&amp;nbsp; backend" style="points=[[0,0],[0.25,0],[0.5,0],[0.75,0],[1,0],[1,0.25],[1,0.5],[1,0.75],[1,1],[0.75,1],[0.5,1],[0.25,1],[0,1],[0,0.75],[0,0.5],[0,0.25]];outlineConnect=0;gradientColor=none;html=1;whiteSpace=wrap;fontSize=12;fontStyle=0;container=1;pointerEvents=0;collapsible=0;recursiveResize=0;shape=mxgraph.aws4.group;grIcon=mxgraph.aws4.group_ec2_instance_contents;strokeColor=#33FF33;fillColor=none;verticalAlign=top;align=left;spacingLeft=30;fontColor=#D86613;dashed=0;rounded=0;" parent="iwajkL2aGSWXHmtzGLia-108" vertex="1">
          <mxGeometry x="260" y="310" width="80" height="60" as="geometry" />
        </mxCell>
        <mxCell id="0bHGS4M8koF1JGW89DRS-5" value="EC2 instance&amp;nbsp; backend" style="points=[[0,0],[0.25,0],[0.5,0],[0.75,0],[1,0],[1,0.25],[1,0.5],[1,0.75],[1,1],[0.75,1],[0.5,1],[0.25,1],[0,1],[0,0.75],[0,0.5],[0,0.25]];outlineConnect=0;gradientColor=none;html=1;whiteSpace=wrap;fontSize=12;fontStyle=0;container=1;pointerEvents=0;collapsible=0;recursiveResize=0;shape=mxgraph.aws4.group;grIcon=mxgraph.aws4.group_ec2_instance_contents;strokeColor=#33FF33;fillColor=none;verticalAlign=top;align=left;spacingLeft=30;fontColor=#D86613;dashed=0;rounded=0;" parent="iwajkL2aGSWXHmtzGLia-108" vertex="1">
          <mxGeometry x="260" y="390" width="80" height="60" as="geometry" />
        </mxCell>
        <mxCell id="0bHGS4M8koF1JGW89DRS-6" value="Availability zone C" style="outlineConnect=0;gradientColor=none;html=1;whiteSpace=wrap;fontSize=12;fontStyle=0;shape=mxgraph.aws4.group;grIcon=mxgraph.aws4.group_availability_zone;strokeColor=#E8E8E8;fillColor=none;verticalAlign=top;align=left;spacingLeft=30;fontColor=#E8E8E8;dashed=1;strokeWidth=6;rounded=0;" parent="iwajkL2aGSWXHmtzGLia-108" vertex="1">
          <mxGeometry x="70" y="500" width="310" height="200" as="geometry" />
        </mxCell>
        <mxCell id="0bHGS4M8koF1JGW89DRS-7" value="EC2 instance&amp;nbsp; frontend" style="points=[[0,0],[0.25,0],[0.5,0],[0.75,0],[1,0],[1,0.25],[1,0.5],[1,0.75],[1,1],[0.75,1],[0.5,1],[0.25,1],[0,1],[0,0.75],[0,0.5],[0,0.25]];outlineConnect=0;gradientColor=none;html=1;whiteSpace=wrap;fontSize=12;fontStyle=0;container=1;pointerEvents=0;collapsible=0;recursiveResize=0;shape=mxgraph.aws4.group;grIcon=mxgraph.aws4.group_ec2_instance_contents;strokeColor=#D86613;fillColor=none;verticalAlign=top;align=left;spacingLeft=30;fontColor=#D86613;dashed=0;rounded=0;" parent="iwajkL2aGSWXHmtzGLia-108" vertex="1">
          <mxGeometry x="110" y="530" width="80" height="60" as="geometry" />
        </mxCell>
        <mxCell id="0bHGS4M8koF1JGW89DRS-8" value="EC2 instance&amp;nbsp; frontend" style="points=[[0,0],[0.25,0],[0.5,0],[0.75,0],[1,0],[1,0.25],[1,0.5],[1,0.75],[1,1],[0.75,1],[0.5,1],[0.25,1],[0,1],[0,0.75],[0,0.5],[0,0.25]];outlineConnect=0;gradientColor=none;html=1;whiteSpace=wrap;fontSize=12;fontStyle=0;container=1;pointerEvents=0;collapsible=0;recursiveResize=0;shape=mxgraph.aws4.group;grIcon=mxgraph.aws4.group_ec2_instance_contents;strokeColor=#D86613;fillColor=none;verticalAlign=top;align=left;spacingLeft=30;fontColor=#D86613;dashed=0;rounded=0;" parent="iwajkL2aGSWXHmtzGLia-108" vertex="1">
          <mxGeometry x="110" y="610" width="80" height="60" as="geometry" />
        </mxCell>
        <mxCell id="0bHGS4M8koF1JGW89DRS-9" value="EC2 instance&amp;nbsp; backend" style="points=[[0,0],[0.25,0],[0.5,0],[0.75,0],[1,0],[1,0.25],[1,0.5],[1,0.75],[1,1],[0.75,1],[0.5,1],[0.25,1],[0,1],[0,0.75],[0,0.5],[0,0.25]];outlineConnect=0;gradientColor=none;html=1;whiteSpace=wrap;fontSize=12;fontStyle=0;container=1;pointerEvents=0;collapsible=0;recursiveResize=0;shape=mxgraph.aws4.group;grIcon=mxgraph.aws4.group_ec2_instance_contents;strokeColor=#33FF33;fillColor=none;verticalAlign=top;align=left;spacingLeft=30;fontColor=#D86613;dashed=0;rounded=0;" parent="iwajkL2aGSWXHmtzGLia-108" vertex="1">
          <mxGeometry x="260" y="530" width="80" height="60" as="geometry" />
        </mxCell>
        <mxCell id="0bHGS4M8koF1JGW89DRS-10" value="EC2 instance&amp;nbsp; backend" style="points=[[0,0],[0.25,0],[0.5,0],[0.75,0],[1,0],[1,0.25],[1,0.5],[1,0.75],[1,1],[0.75,1],[0.5,1],[0.25,1],[0,1],[0,0.75],[0,0.5],[0,0.25]];outlineConnect=0;gradientColor=none;html=1;whiteSpace=wrap;fontSize=12;fontStyle=0;container=1;pointerEvents=0;collapsible=0;recursiveResize=0;shape=mxgraph.aws4.group;grIcon=mxgraph.aws4.group_ec2_instance_contents;strokeColor=#33FF33;fillColor=none;verticalAlign=top;align=left;spacingLeft=30;fontColor=#D86613;dashed=0;rounded=0;" parent="iwajkL2aGSWXHmtzGLia-108" vertex="1">
          <mxGeometry x="260" y="610" width="80" height="60" as="geometry" />
        </mxCell>
        <mxCell id="ex6H_722IEGtC6VwLtxr-2" value="EC2 instance&amp;nbsp; backend" style="points=[[0,0],[0.25,0],[0.5,0],[0.75,0],[1,0],[1,0.25],[1,0.5],[1,0.75],[1,1],[0.75,1],[0.5,1],[0.25,1],[0,1],[0,0.75],[0,0.5],[0,0.25]];outlineConnect=0;gradientColor=none;html=1;whiteSpace=wrap;fontSize=12;fontStyle=0;container=1;pointerEvents=0;collapsible=0;recursiveResize=0;shape=mxgraph.aws4.group;grIcon=mxgraph.aws4.group_ec2_instance_contents;strokeColor=#33FF33;fillColor=none;verticalAlign=top;align=left;spacingLeft=30;fontColor=#D86613;dashed=0;rounded=0;" vertex="1" parent="iwajkL2aGSWXHmtzGLia-108">
          <mxGeometry x="260" y="170" width="80" height="60" as="geometry" />
        </mxCell>
        <mxCell id="ex6H_722IEGtC6VwLtxr-18" value="&lt;font style=&quot;font-size: 14px;&quot;&gt;Security group restricts traffic to Backend&amp;nbsp; instances&lt;br&gt;&amp;nbsp;only from Frontend&amp;nbsp; instances&lt;/font&gt;" style="text;strokeColor=default;align=center;fillColor=none;html=1;verticalAlign=middle;whiteSpace=wrap;rounded=0;strokeWidth=6;" vertex="1" parent="iwajkL2aGSWXHmtzGLia-108">
          <mxGeometry x="160" y="720" width="130" height="110" as="geometry" />
        </mxCell>
        <mxCell id="iwajkL2aGSWXHmtzGLia-104" value="" style="endArrow=classic;html=1;rounded=0;" parent="iwajkL2aGSWXHmtzGLia-108" edge="1" source="iwajkL2aGSWXHmtzGLia-113">
          <mxGeometry width="50" height="50" relative="1" as="geometry">
            <mxPoint x="-40" y="490" as="sourcePoint" />
            <mxPoint x="50" y="530" as="targetPoint" />
          </mxGeometry>
        </mxCell>
        <mxCell id="iwajkL2aGSWXHmtzGLia-103" value="" style="endArrow=classic;html=1;rounded=0;" parent="iwajkL2aGSWXHmtzGLia-108" edge="1">
          <mxGeometry width="50" height="50" relative="1" as="geometry">
            <mxPoint x="-80" y="360" as="sourcePoint" />
            <mxPoint x="50" y="360" as="targetPoint" />
          </mxGeometry>
        </mxCell>
        <mxCell id="iwajkL2aGSWXHmtzGLia-113" value="&lt;font style=&quot;font-size: 15px;&quot;&gt;Availability zone A, B, C&lt;/font&gt;" style="outlineConnect=0;gradientColor=none;html=1;whiteSpace=wrap;fontSize=12;fontStyle=0;shape=mxgraph.aws4.group;grIcon=mxgraph.aws4.group_availability_zone;strokeColor=#E8E8E8;fillColor=none;verticalAlign=top;align=left;spacingLeft=30;fontColor=#E8E8E8;dashed=1;strokeWidth=4;rounded=0;" parent="1" vertex="1">
          <mxGeometry x="354.5" y="-916.5" width="169" height="302" as="geometry" />
        </mxCell>
        <mxCell id="ex6H_722IEGtC6VwLtxr-6" value="" style="points=[[0,0,0],[0.25,0,0],[0.5,0,0],[0.75,0,0],[1,0,0],[0,1,0],[0.25,1,0],[0.5,1,0],[0.75,1,0],[1,1,0],[0,0.25,0],[0,0.5,0],[0,0.75,0],[1,0.25,0],[1,0.5,0],[1,0.75,0]];outlineConnect=0;fontColor=#232F3E;gradientColor=#4D72F3;gradientDirection=north;fillColor=#3334B9;strokeColor=#ffffff;dashed=0;verticalLabelPosition=bottom;verticalAlign=top;align=center;html=1;fontSize=12;fontStyle=0;aspect=fixed;shape=mxgraph.aws4.resourceIcon;resIcon=mxgraph.aws4.rds;rounded=0;" vertex="1" parent="1">
          <mxGeometry x="1300" y="-828" width="128" height="128" as="geometry" />
        </mxCell>
        <mxCell id="ex6H_722IEGtC6VwLtxr-7" value="&lt;font style=&quot;font-size: 14px;&quot;&gt;Amazon RDS master&lt;/font&gt;" style="text;strokeColor=default;align=center;fillColor=none;html=1;verticalAlign=middle;whiteSpace=wrap;rounded=0;" vertex="1" parent="1">
          <mxGeometry x="1316" y="-890" width="91" height="50" as="geometry" />
        </mxCell>
        <mxCell id="ex6H_722IEGtC6VwLtxr-8" value="" style="endArrow=classic;startArrow=classic;html=1;rounded=0;" edge="1" parent="1">
          <mxGeometry width="50" height="50" relative="1" as="geometry">
            <mxPoint x="1020" y="-960" as="sourcePoint" />
            <mxPoint x="1250" y="-840" as="targetPoint" />
          </mxGeometry>
        </mxCell>
        <mxCell id="ex6H_722IEGtC6VwLtxr-9" value="" style="endArrow=classic;startArrow=classic;html=1;rounded=0;" edge="1" parent="1">
          <mxGeometry width="50" height="50" relative="1" as="geometry">
            <mxPoint x="1030" y="-740" as="sourcePoint" />
            <mxPoint x="1260" y="-770" as="targetPoint" />
          </mxGeometry>
        </mxCell>
        <mxCell id="ex6H_722IEGtC6VwLtxr-10" value="" style="endArrow=classic;startArrow=classic;html=1;rounded=0;" edge="1" parent="1">
          <mxGeometry width="50" height="50" relative="1" as="geometry">
            <mxPoint x="1030" y="-530" as="sourcePoint" />
            <mxPoint x="1250" y="-690" as="targetPoint" />
          </mxGeometry>
        </mxCell>
        <mxCell id="ex6H_722IEGtC6VwLtxr-11" value="" style="points=[[0,0,0],[0.25,0,0],[0.5,0,0],[0.75,0,0],[1,0,0],[0,1,0],[0.25,1,0],[0.5,1,0],[0.75,1,0],[1,1,0],[0,0.25,0],[0,0.5,0],[0,0.75,0],[1,0.25,0],[1,0.5,0],[1,0.75,0]];outlineConnect=0;fontColor=#232F3E;gradientColor=#4D72F3;gradientDirection=north;fillColor=#3334B9;strokeColor=#ffffff;dashed=0;verticalLabelPosition=bottom;verticalAlign=top;align=center;html=1;fontSize=12;fontStyle=0;aspect=fixed;shape=mxgraph.aws4.resourceIcon;resIcon=mxgraph.aws4.rds;rounded=0;" vertex="1" parent="1">
          <mxGeometry x="1306.5" y="-570" width="110" height="110" as="geometry" />
        </mxCell>
        <mxCell id="ex6H_722IEGtC6VwLtxr-12" value="&lt;font style=&quot;font-size: 12px;&quot;&gt;Amazon RDS replica&lt;/font&gt;" style="text;strokeColor=default;align=center;fillColor=none;html=1;verticalAlign=middle;whiteSpace=wrap;rounded=0;" vertex="1" parent="1">
          <mxGeometry x="1316" y="-450" width="91" height="50" as="geometry" />
        </mxCell>
        <mxCell id="ex6H_722IEGtC6VwLtxr-13" value="" style="endArrow=classic;startArrow=classic;html=1;rounded=0;" edge="1" parent="1">
          <mxGeometry width="50" height="50" relative="1" as="geometry">
            <mxPoint x="1361" y="-590" as="sourcePoint" />
            <mxPoint x="1361" y="-680" as="targetPoint" />
          </mxGeometry>
        </mxCell>
        <mxCell id="ex6H_722IEGtC6VwLtxr-17" value="&lt;font style=&quot;font-size: 14px;&quot;&gt;Security group restricts traffic to RDS only from Backend&amp;nbsp; instances&lt;/font&gt;" style="text;strokeColor=default;align=center;fillColor=none;html=1;verticalAlign=middle;whiteSpace=wrap;rounded=0;strokeWidth=3;" vertex="1" parent="1">
          <mxGeometry x="1130" y="-1026.5" width="130" height="110" as="geometry" />
        </mxCell>
        <mxCell id="ex6H_722IEGtC6VwLtxr-19" value="&lt;font style=&quot;font-size: 14px;&quot;&gt;Security group restricts traffic to Frontend only from ELB&lt;/font&gt;" style="text;strokeColor=default;align=center;fillColor=none;html=1;verticalAlign=middle;whiteSpace=wrap;rounded=0;strokeWidth=3;" vertex="1" parent="1">
          <mxGeometry x="469" y="-1040" width="130" height="110" as="geometry" />
        </mxCell>
      </root>
    </mxGraphModel>
  </diagram>
</mxfile>
